mastitorrents.com
  
http://mastitorrents.com/forums/index.php
  
http://thepiratebay.se/user/HDvideos/0/7

My Boss (2012) Malayalam DVDRip XviD 1CDRip ESubs

Source					 : DVD 9
Ripper					 : SRK
Complete name                            : My Boss (2012) - DVDRip - XviD - 1xCD
Format                                   : AVI
Format/Info                              : Audio Video Interleave
File size                                : 695 MiB
Duration                                 : 2h 39mn
Overall bit rate                         : 611 Kbps
Writing application                      : VirtualDubMod 1.5.10.3 | www.virtualdub-fr.org || (build 2550/release)
Writing library                          : VirtualDubMod build 2550/release

Video
ID                                       : 0
Format                                   : MPEG-4 Visual
Format profile                           : Advanced Simple@L5
Format settings, BVOP                    : 2
Format settings, QPel                    : No
Format settings, GMC                     : No warppoints
Format settings, Matrix                  : Default (H.263)
Codec ID                                 : XVID
Codec ID/Hint                            : XviD
Duration                                 : 2h 39mn
Bit rate                                 : 521 Kbps
Width                                    : 608 pixels
Height                                   : 256 pixels
Display aspect ratio                     : 2.40:1
Frame rate                               : 23.976 fps
Color space                              : YUV
Chroma subsampling                       : 4:2:0
Bit depth                                : 8 bits
Scan type                                : Progressive
Compression mode                         : Lossy
Bits/(Pixel*Frame)                       : 0.140
Stream size                              : 593 MiB (85%)
Writing library                          : XviD 1.2.1 (UTC 2008-12-04)

Audio
ID                                       : 1
Format                                   : MPEG Audio
Format version                           : Version 1
Format profile                           : Layer 3
Mode                                     : Joint stereo
Mode extension                           : MS Stereo
Codec ID                                 : 55
Codec ID/Hint                            : MP3
Duration                                 : 2h 39mn
Bit rate mode                            : Constant
Bit rate                                 : 80.0 Kbps
Channel(s)                               : 2 channels
Sampling rate                            : 32.0 KHz
Compression mode                         : Lossy
Delay relative to video                  : 468ms
Stream size                              : 91.0 MiB (13%)
Alignment                                : Split accross interleaves
Interleave, duration                     : 42 ms (1.00 video frame)
Writing library                          : LAME3.99r
Encoding settings                        : -m j -V 4 -q 2 -lowpass 13.5 -b 80

Screens: 
http://imageshack.us/a/img266/5006/51986302.png 
http://imageshack.us/a/img705/6424/73321097.png 
http://imageshack.us/a/img803/6323/38374029.png 
http://imageshack.us/a/img96/3038/87836551.png 
http://imageshack.us/a/img850/482/55722288.png 
http://imageshack.us/a/img541/874/90659007.png 
http://imageshack.us/a/img201/479/89121325.png 
http://imageshack.us/a/img201/3656/56856300.png 
http://imageshack.us/a/img441/7092/48563384.png 
http://imageshack.us/a/img341/1153/39170674.png 
http://imageshack.us/a/img707/2171/43610078.png